REM MD5 b552f5c95ea46d135d941afc225c62df
FILE "Jikki Pachi-Slot Tettei Kouryaku - Yamasa Collection (Japan).bin" BINARY
  TRACK 01 MODE2/2352
    INDEX 01 00:00:00
  TRACK 02 AUDIO
    INDEX 00 01:08:07
    INDEX 01 01:10:07
  TRACK 03 AUDIO
    INDEX 00 01:57:11
    INDEX 01 01:58:11
  TRACK 04 AUDIO
    INDEX 00 02:46:11
    INDEX 01 02:47:11
REM LEADOUT 06:33:68
